<?xml version="1.0" encoding="iso-8859-1"?>
<!-- Generator: Adobe Illustrator 21.0.0, SVG Export Plug-In . SVG Version: 6.00 Build 0)  -->
<svg version="1.1" id="Layer_1" xmlns="http://www.w3.org/2000/svg" xmlns:xlink="http://www.w3.org/1999/xlink" x="0px" y="0px"
	 viewBox="0 0 100.353 100.353" style="enable-background:new 0 0 100.353 100.353;" xml:space="preserve">
<g>
	<path style="fill:#231F20;" d="M68.155,12.251H31.848c-4.776,0-8.663,3.885-8.663,8.659v58.179c0,4.775,3.887,8.659,8.663,8.659
		h36.307c4.775,0,8.66-3.884,8.66-8.659V20.91C76.815,16.135,72.931,12.251,68.155,12.251z M73.815,79.089
		c0,3.121-2.539,5.659-5.66,5.659H31.848c-3.123,0-5.663-2.539-5.663-5.659V20.91c0-3.12,2.54-5.659,5.663-5.659h36.307
		c3.121,0,5.66,2.539,5.66,5.659V79.089z"/>
	<path style="fill:#231F20;" d="M60.763,20.624H39.037c-0.828,0-1.5,0.672-1.5,1.5c0,0.829,0.672,1.5,1.5,1.5h21.726
		c0.828,0,1.5-0.671,1.5-1.5C62.263,21.296,61.591,20.624,60.763,20.624z"/>
	<path style="fill:#231F20;" d="M50.01,70.987c-0.007,0-0.014,0-0.021,0c-1.22,0.003-2.364,0.481-3.224,1.347
		s-1.331,2.015-1.326,3.232c0.001,1.216,0.478,2.36,1.341,3.219c0.862,0.858,2.006,1.33,3.224,1.33c0.006,0,0.011,0,0.017,0
		c1.22-0.005,2.364-0.485,3.223-1.351c0.858-0.866,1.328-2.015,1.322-3.234c-0.005-1.217-0.483-2.36-1.348-3.219
		C52.357,71.457,51.218,70.987,50.01,70.987z M51.565,75.546c0.002,0.417-0.158,0.81-0.452,1.106
		c-0.295,0.297-0.688,0.461-1.104,0.463c-0.398-0.005-0.815-0.161-1.111-0.457c-0.295-0.293-0.458-0.683-0.458-1.101
		c-0.002-0.419,0.159-0.813,0.454-1.11c0.294-0.296,0.687-0.46,1.106-0.461c0.002,0,0.005,0,0.007,0
		c0.413,0,0.803,0.161,1.097,0.453c0.297,0.294,0.461,0.686,0.462,1.103C51.565,75.544,51.565,75.545,51.565,75.546z"/>
</g>
</svg>
